<?xml version="1.0" standalone="no"?>
<!DOCTYPE svg PUBLIC "-//W3C//DTD SVG 20010904//EN"
 "http://www.w3.org/TR/2001/REC-SVG-20010904/DTD/svg10.dtd">
<svg version="1.0" xmlns="http://www.w3.org/2000/svg"
 width="1000.000000pt" height="1000.000000pt" viewBox="0 0 1000.000000 1000.000000"
 preserveAspectRatio="xMidYMid meet">

<g transform="translate(0.000000,1000.000000) scale(0.100000,-0.100000)"
fill="#000000" stroke="none">
<path d="M6893 7225 c-22 -21 -32 -75 -15 -75 4 0 16 15 27 33 10 17 28 40 40
49 20 17 20 17 -5 17 -14 -1 -35 -11 -47 -24z"/>
<path d="M6725 7106 c-14 -25 -35 -48 -46 -51 -10 -4 -19 -10 -19 -15 0 -22
-65 -110 -80 -110 -20 0 -43 -24 -33 -33 3 -4 15 -7 25 -7 10 0 18 -6 18 -14
0 -7 14 -24 32 -37 38 -29 68 -60 68 -71 0 -4 7 -8 16 -8 12 0 14 -7 9 -29 -6
-29 11 -95 43 -161 15 -29 22 -35 50 -35 33 0 52 -16 52 -45 0 -21 -37 -80
-71 -113 -32 -31 -42 -84 -13 -73 9 4 63 9 119 12 l102 5 27 -31 c14 -17 28
-44 31 -58 13 -65 20 -76 52 -84 33 -8 48 -33 37 -61 -9 -23 -33 -29 -69 -16
-27 10 -40 9 -76 -5 -34 -14 -69 -17 -154 -16 -60 2 -123 -1 -138 -5 -24 -7
-34 -2 -68 31 -21 21 -39 46 -39 55 0 9 16 36 35 59 19 23 35 48 35 56 0 27
-80 48 -95 24 -4 -6 -15 -6 -32 1 -45 17 -66 4 -103 -66 -19 -36 -51 -86 -72
-111 -21 -25 -73 -101 -115 -167 -88 -138 -91 -152 -61 -300 18 -91 37 -117
87 -117 55 0 201 20 261 36 155 41 182 52 220 89 45 44 51 66 34 130 -6 27
-10 55 -7 62 6 14 9 15 73 19 25 1 59 5 76 9 22 5 34 2 44 -10 11 -14 10 -23
-8 -61 -34 -70 -29 -102 21 -133 39 -23 140 -35 167 -21 17 9 20 7 20 -15 0
-20 5 -25 26 -25 26 0 26 2 20 43 -4 23 -14 48 -24 55 -16 12 -16 14 1 23 19
11 25 83 7 94 -6 4 -10 -8 -10 -29 0 -20 -5 -36 -11 -36 -14 0 -6 156 14 280
23 134 24 128 -29 142 -64 18 -80 43 -65 105 19 75 25 375 8 415 -40 95 -276
199 -319 140 -12 -17 -14 -17 -30 0 -10 9 -13 20 -8 23 5 3 12 0 15 -6 11 -17
33 23 32 56 -1 17 -6 33 -12 37 -5 4 0 8 13 8 26 0 41 28 22 40 -8 5 -8 10 -2
14 6 3 12 1 14 -6 3 -9 9 -8 22 5 16 15 16 18 2 23 -9 3 -14 10 -11 15 3 4 -9
13 -27 18 -18 5 -27 10 -20 10 20 1 51 43 52 69 0 25 -12 29 -30 7 -16 -19
-39 -19 -61 1 -16 14 -19 12 -44 -30z m35 -326 c21 -21 26 -45 11 -54 -12 -8
-22 20 -14 42 6 15 5 16 -12 2 -17 -14 -18 -13 -12 2 3 9 1 19 -6 22 -9 3 -9
5 1 5 6 1 21 -8 32 -19z m-258 -798 c6 -6 12 -71 13 -162 l3 -152 -26 -29
c-30 -31 -95 -51 -129 -38 -32 12 -48 80 -34 142 6 27 11 84 11 128 0 73 2 82
26 106 22 22 32 25 75 21 28 -3 55 -10 61 -16z m598 -82 c0 -11 -7 -23 -15
-27 -21 -8 -28 1 -20 26 8 27 35 27 35 1z m-395 -30 c8 -24 -1 -40 -21 -40
-17 0 -28 24 -20 45 8 22 34 18 41 -5z"/>
<path d="M4436 6800 c-30 -46 -31 -54 -8 -94 22 -37 32 -37 53 -1 15 25 16 38
7 83 -6 28 -14 52 -18 52 -4 0 -19 -18 -34 -40z"/>
<path d="M6537 6833 c-2 -5 -10 -30 -17 -58 -16 -58 -46 -115 -106 -203 -30
-43 -44 -73 -44 -96 0 -19 -14 -55 -33 -88 -19 -30 -37 -62 -40 -71 -4 -10
-15 -17 -26 -17 -13 0 -27 -12 -37 -32 -9 -18 -43 -74 -75 -125 -33 -51 -59
-94 -59 -97 0 -10 -83 -136 -89 -136 -4 0 -30 39 -57 86 -80 139 -97 159 -164
192 l-61 31 -42 -30 c-36 -26 -43 -28 -53 -15 -15 21 -27 20 -49 -4 -10 -11
-26 -20 -36 -20 -10 0 -20 -4 -24 -9 -3 -5 -30 -22 -60 -38 -68 -34 -90 -26
-90 32 0 34 -3 39 -30 47 -16 5 -63 7 -103 4 -40 -3 -80 -2 -90 3 -9 6 -39 15
-67 21 -27 6 -57 17 -65 24 -14 13 -51 20 -166 33 -51 5 -91 -8 -206 -68 -24
-12 -28 -11 -22 6 4 8 1 15 -5 15 -6 0 -11 5 -11 10 0 6 -14 31 -31 58 -16 26
-28 38 -25 27 14 -60 17 -86 9 -100 -7 -12 -14 -7 -31 28 -12 24 -22 52 -22
61 0 9 -2 16 -6 16 -18 0 -129 -88 -146 -116 -11 -19 -23 -34 -26 -34 -4 0
-25 -12 -47 -26 l-40 -25 40 6 c74 12 80 12 103 14 17 1 22 7 22 29 0 27 34
52 69 52 31 -1 54 -48 48 -95 -4 -25 -2 -45 3 -47 6 -2 -6 -21 -25 -43 -19
-22 -35 -44 -35 -48 0 -4 -11 -20 -25 -35 -14 -15 -25 -30 -25 -34 0 -4 -20
-36 -45 -71 -44 -63 -63 -122 -91 -277 l-8 -45 -6 37 -5 36 -34 -49 c-37 -55
-36 -69 3 -43 30 19 41 14 32 -13 -18 -52 -106 -113 -176 -122 -50 -7 -52 -11
-29 -89 6 -23 9 -45 6 -48 -2 -3 -30 2 -61 11 -31 9 -65 14 -75 10 -18 -5 -51
-51 -106 -146 -47 -82 -38 -80 -100 -19 -42 42 -57 64 -62 94 -4 27 -26 64
-70 120 -35 44 -89 119 -120 166 -56 85 -56 85 -68 58 -20 -50 -75 -98 -111
-98 -18 0 -36 -4 -39 -10 -9 -15 -25 -12 -25 6 0 8 -4 12 -10 9 -13 -8 -13
-52 0 -60 6 -3 10 -19 10 -35 0 -16 5 -32 10 -35 6 -3 10 -18 10 -32 0 -18 -4
-24 -15 -19 -8 3 -15 1 -15 -3 0 -5 19 -12 43 -16 62 -10 108 -40 166 -106 39
-44 51 -64 46 -79 -5 -16 -2 -20 19 -20 16 0 26 -6 26 -15 0 -9 -9 -15 -25
-15 -34 0 -32 -16 3 -24 15 -3 34 -11 42 -18 29 -24 87 -103 132 -178 38 -62
44 -81 40 -113 -2 -20 1 -43 7 -51 8 -9 9 -22 3 -37 -36 -93 -42 -163 -17
-173 8 -3 12 -12 9 -21 -3 -8 -1 -15 4 -15 6 0 12 -10 14 -22 2 -15 11 -24 24
-26 25 -4 35 -37 22 -72 -13 -35 0 -77 25 -84 16 -4 19 -8 9 -14 -9 -6 -11
-18 -6 -35 4 -19 2 -27 -6 -27 -9 0 -7 -7 5 -20 11 -13 25 -18 37 -14 10 3 18
1 18 -5 0 -6 -9 -11 -20 -11 -11 0 -20 -4 -20 -10 0 -5 9 -10 20 -10 23 0 38
-42 21 -62 -41 -51 -70 -82 -73 -78 -24 34 -88 96 -88 86 0 -7 7 -19 15 -26 8
-7 12 -16 10 -20 -3 -5 -1 -30 5 -55 10 -45 9 -48 -25 -89 -25 -31 -35 -53
-35 -78 0 -50 37 -100 85 -116 37 -12 251 -111 320 -149 17 -8 71 -36 120 -61
50 -25 93 -49 96 -55 8 -11 49 0 49 14 0 5 7 9 15 9 22 0 18 12 -12 37 l-28
22 25 -6 c14 -3 30 -10 37 -15 7 -6 19 -6 30 0 16 9 15 12 -10 23 -15 7 -27
16 -27 21 0 5 17 -1 38 -14 l39 -22 29 21 c16 11 40 24 54 28 14 4 27 11 30
16 3 4 19 10 35 14 l30 7 -26 -15 c-14 -8 -44 -26 -65 -41 -21 -14 -42 -26
-45 -26 -8 0 -114 -63 -134 -80 -8 -7 -13 -15 -11 -19 3 -4 -11 -11 -30 -17
-30 -10 -34 -9 -30 5 4 12 -9 22 -52 40 -31 14 -100 44 -152 69 -142 65 -212
94 -218 88 -2 -3 4 -9 14 -13 17 -6 51 -33 42 -33 -2 0 -39 14 -81 30 -89 34
-141 39 -156 13 -8 -15 -11 -15 -27 -3 -16 14 -17 10 -11 -72 6 -83 21 -186
35 -237 4 -14 21 -32 37 -41 17 -10 29 -25 29 -34 -2 -13 5 -15 36 -10 29 5
45 2 64 -12 26 -20 34 -48 15 -60 -14 -8 -4 -147 11 -152 5 -2 10 -11 10 -21
0 -9 9 -23 20 -31 15 -11 17 -17 7 -28 -9 -12 -6 -19 18 -38 17 -13 24 -24 16
-24 -11 0 -10 -5 4 -20 11 -13 25 -18 37 -14 10 3 18 1 18 -5 0 -6 -5 -11 -12
-11 -6 0 -9 -2 -7 -5 3 -2 19 -1 36 4 28 8 30 7 25 -17 -4 -21 -2 -24 12 -19
10 4 19 7 22 7 2 0 1 6 -2 14 -3 8 3 16 16 19 12 3 19 10 16 15 -3 6 0 22 8
36 l13 26 37 -40 c41 -46 41 -46 21 -67 -9 -8 -13 -18 -9 -22 4 -3 9 0 11 7 7
19 24 14 21 -5 -2 -12 3 -17 15 -15 36 6 46 -10 33 -50 -11 -29 -11 -35 0 -31
7 2 15 -4 18 -15 7 -20 46 -38 46 -21 0 5 5 9 10 9 6 0 10 -9 10 -20 0 -11 -4
-20 -10 -20 -5 0 -10 -9 -10 -20 0 -11 5 -20 10 -20 6 0 10 3 10 8 0 33 22
126 33 142 12 17 16 18 39 6 30 -16 97 -13 125 5 11 6 26 22 34 33 21 33 204
206 217 206 7 0 12 4 12 8 0 15 133 86 174 93 23 4 66 14 96 24 30 9 62 17 71
18 10 1 14 8 12 18 -5 18 23 34 32 18 4 -5 11 -7 16 -4 5 4 16 -1 25 -9 16
-17 22 -18 119 -20 93 -3 134 -40 150 -137 5 -30 3 -44 -6 -50 -11 -7 -12 -12
-2 -28 11 -18 10 -23 -11 -36 -13 -9 -31 -13 -40 -9 -9 3 -16 1 -16 -5 0 -6 8
-11 18 -12 9 0 -5 -8 -33 -17 -27 -9 -56 -22 -63 -29 -7 -7 -29 -15 -49 -19
-29 -6 -33 -8 -18 -16 31 -18 111 -15 133 5 15 14 33 17 78 15 35 -2 59 -8 62
-15 2 -7 -5 -13 -15 -14 -15 0 -14 -2 5 -9 27 -12 29 -40 2 -40 -11 0 -20 -4
-20 -10 0 -5 5 -10 11 -10 8 0 8 -4 -1 -14 -9 -12 -8 -17 8 -27 11 -7 18 -19
15 -26 -3 -7 1 -13 9 -13 13 0 43 -81 39 -108 -1 -6 2 -12 7 -12 6 0 12 -14
14 -31 8 -50 -5 -57 -132 -72 -14 -1 55 -3 154 -4 98 -1 176 1 172 4 -3 4 -24
6 -47 5 -85 -4 4 43 101 53 43 4 60 3 51 -3 -11 -8 -10 -11 4 -19 12 -7 14
-13 6 -17 -13 -8 -15 -26 -3 -26 15 0 52 37 45 44 -3 3 -1 6 5 6 16 0 15 -23
0 -38 -9 -9 4 -12 62 -12 60 0 78 4 95 20 20 19 59 29 182 46 17 3 42 13 55
23 23 19 23 21 28 308 3 158 1 308 -3 333 -5 25 -11 75 -14 112 -3 37 -9 65
-14 62 -5 -3 -9 21 -9 53 0 44 -3 54 -11 43 -8 -11 -9 -2 -5 34 5 41 4 47 -10
42 -13 -5 -15 0 -9 35 5 29 4 40 -4 35 -7 -5 -11 4 -11 26 0 26 -3 30 -11 18
-8 -11 -9 -5 -4 23 3 20 2 37 -3 37 -5 0 -12 20 -15 45 -4 24 -11 53 -16 62
-6 10 -38 88 -71 173 -64 161 -129 303 -152 331 -7 9 -23 19 -36 23 -18 6 -22
15 -22 47 0 43 24 64 44 38 6 -9 19 -18 29 -22 25 -9 118 14 139 35 23 23 18
23 151 -8 135 -32 368 -44 445 -24 78 21 163 50 236 81 37 16 72 29 77 29 5 0
9 -12 10 -27 l0 -28 10 24 c6 16 6 35 -1 55 -7 21 -7 32 0 34 5 2 10 20 9 40
0 30 -2 33 -9 17 -8 -19 -9 -19 -9 3 -1 13 5 22 13 22 8 0 16 5 18 12 8 22
-29 103 -53 115 -22 11 -22 15 -20 134 2 119 14 226 27 238 3 3 11 6 16 6 6 0
12 14 13 30 2 35 -31 85 -56 85 -15 0 -17 -10 -12 -97 7 -143 -14 -182 -80
-150 -18 9 -47 21 -66 28 -40 15 -71 46 -71 72 0 14 -5 17 -17 12 -10 -4 -34
-9 -53 -12 -19 -3 -59 -14 -88 -26 l-52 -21 -40 39 c-33 32 -40 46 -40 77 0
53 -24 108 -47 108 -11 0 -23 4 -28 9 -13 11 -211 82 -248 89 -40 7 -43 26
-11 64 23 28 26 29 22 11 -5 -18 -2 -23 13 -23 10 0 19 -4 19 -10 0 -5 4 -10
8 -10 4 0 6 16 4 35 -3 25 -9 35 -22 35 -15 0 -17 7 -12 45 5 50 -4 57 -34 24
-10 -12 -31 -27 -46 -35 -36 -19 -64 -2 -73 43 -3 19 -12 33 -20 33 -8 0 -105
-45 -217 -99 -209 -102 -248 -118 -248 -104 0 5 28 19 63 33 34 13 87 39 117
56 30 18 76 41 101 53 25 12 59 35 74 51 16 17 36 30 46 30 9 0 24 11 33 25 9
14 22 25 30 25 9 0 13 16 13 53 0 28 1 63 3 77 1 14 0 61 -3 105 l-6 81 64
114 c36 63 65 117 65 121 0 4 17 28 38 52 20 25 68 93 106 152 57 89 75 110
110 126 22 10 52 19 64 19 15 0 22 5 19 13 -5 14 44 74 82 99 14 10 40 18 57
18 62 0 70 39 29 128 -23 51 -32 61 -47 56 -26 -8 -98 43 -113 80 -10 23 -9
34 3 60 9 17 20 34 26 38 6 4 -1 8 -16 8 -15 0 -29 -3 -31 -7z m-1937 -688
c-7 -9 -15 -13 -17 -11 -6 6 20 36 26 30 2 -2 -2 -10 -9 -19z m983 -35 c-3
-11 -9 -20 -14 -20 -10 0 -11 12 -3 34 9 22 23 10 17 -14z m-66 -140 c-3 -11
-2 -18 3 -15 4 3 10 -7 13 -21 l5 -26 -24 27 c-12 14 -20 33 -17 41 8 22 26
17 20 -6z m-56 -243 c13 -31 9 -40 -13 -32 -21 8 -38 49 -38 88 l0 32 20 -30
c11 -16 25 -42 31 -58z m-144 51 c-3 -8 -6 -5 -6 6 -1 11 2 17 5 13 3 -3 4
-12 1 -19z m-750 -60 c-3 -8 -6 -5 -6 6 -1 11 2 17 5 13 3 -3 4 -12 1 -19z
m771 1 c12 -19 11 -19 -7 -10 -26 14 -36 31 -19 31 7 0 19 -9 26 -21z m96 -49
c15 0 -16 -20 -31 -20 -7 0 -13 7 -13 15 0 8 -7 15 -15 15 -13 0 -13 3 -3 13
10 12 16 11 32 -5 11 -10 25 -18 30 -18z m-165 -42 c-12 -21 -13 -21 -17 -4
-2 10 2 22 9 27 20 12 22 4 8 -23z m71 -3 c-7 -8 -16 -15 -21 -15 -14 0 -10
17 8 36 20 20 32 1 13 -21z m-493 -1 c3 -8 -1 -23 -10 -32 -15 -14 -17 -14
-23 1 -8 21 1 47 16 47 6 0 13 -7 17 -16z m703 1 c7 -8 10 -21 6 -30 -8 -22
-36 -6 -36 21 0 27 12 31 30 9z m-495 -75 c-4 -14 -12 -31 -18 -38 -9 -11 -13
-11 -24 4 -18 24 -16 54 4 76 17 19 18 19 31 1 7 -10 10 -28 7 -43z m339 42
c3 -5 28 -6 56 -2 28 4 53 3 55 0 6 -10 -41 -30 -69 -30 -18 0 -26 -9 -36 -40
-13 -38 -14 -39 -32 -24 -10 10 -18 26 -18 37 0 16 -3 17 -15 7 -8 -7 -33 -13
-55 -14 -34 0 -40 -4 -40 -22 0 -34 -21 -85 -34 -81 -19 6 -36 50 -36 95 0 47
15 61 49 43 24 -13 111 6 118 26 6 14 49 18 57 5z m-556 -103 c-4 -35 -44 -34
-40 1 3 27 22 44 35 31 5 -5 7 -19 5 -32z m708 24 c14 -19 19 -53 8 -53 -12 0
-33 34 -34 53 0 9 3 17 6 17 4 0 13 -8 20 -17z m-662 -29 c20 -8 21 -34 1 -34
-8 0 -15 2 -15 4 0 2 -3 11 -6 20 -7 18 -4 19 20 10z m579 -34 c-3 -10 -13
-22 -23 -25 -29 -9 -55 -44 -43 -56 8 -8 21 -6 47 6 33 16 38 16 61 1 14 -9
25 -20 25 -25 0 -15 -49 -33 -74 -27 -16 4 -35 1 -49 -8 -16 -10 -33 -12 -62
-6 -32 6 -36 9 -20 15 22 7 50 43 41 53 -12 11 -122 -33 -143 -58 -21 -25 -22
-25 -37 -5 -31 41 -18 61 36 56 20 -2 107 46 125 68 10 15 100 41 115 34 3 -2
4 -12 1 -23z m-417 -26 c8 -30 -6 -47 -29 -38 -11 4 -17 17 -17 35 0 39 37 41
46 3z m-316 -4 c0 -5 -4 -10 -10 -10 -5 0 -10 5 -10 10 0 6 5 10 10 10 6 0 10
-4 10 -10z m90 -21 c0 -12 -7 -19 -19 -19 -27 0 -34 15 -15 34 19 19 34 12 34
-15z m760 -1 c10 -17 16 -36 13 -41 -7 -12 -53 41 -53 61 0 22 20 12 40 -20z
m45 22 c3 -5 1 -10 -4 -10 -6 0 -11 5 -11 10 0 6 2 10 4 10 3 0 8 -4 11 -10z
m-692 -52 c9 -5 17 -13 17 -18 0 -6 -8 -10 -17 -10 -21 0 -103 36 -103 45 0 7
81 -6 103 -17z m107 -28 c10 -18 8 -20 -19 -20 -34 0 -51 18 -30 31 22 14 38
10 49 -11z m-436 -132 c31 -18 56 -36 56 -40 0 -26 -137 -13 -176 17 -18 14
-18 15 4 21 17 5 22 12 19 26 -5 17 -2 19 18 14 13 -3 48 -20 79 -38z m817
-114 c-48 -34 -257 -74 -388 -74 -85 0 -118 13 -60 24 18 3 90 10 159 16 112
8 276 35 287 46 2 2 9 4 15 4 6 0 0 -7 -13 -16z m-1790 -121 c15 -13 44 -50
65 -81 39 -57 125 -176 145 -200 6 -7 9 -16 6 -18 -5 -5 -71 75 -158 190 -50
68 -82 103 -119 129 l-25 19 30 -7 c17 -3 42 -18 56 -32z m482 -65 c74 -42 74
-63 1 -71 -32 -3 -64 -13 -75 -23 -18 -16 -20 -16 -37 -1 -10 10 -26 17 -34
17 -21 0 -37 21 -44 58 l-6 32 86 0 c50 0 96 -5 109 -12z m1328 -319 c13 -24
13 -24 -35 -184 -20 -66 -36 -131 -36 -144 0 -13 -3 -21 -7 -17 -18 18 -32
111 -33 219 0 97 2 117 15 117 8 0 15 4 15 9 0 9 21 16 57 20 7 0 17 -9 24
-20z m-1572 -83 c8 -13 26 -26 42 -30 16 -3 29 -10 29 -16 0 -6 9 -21 20 -32
14 -15 18 -29 13 -42 -11 -36 -9 -61 7 -61 21 -1 41 -15 35 -25 -3 -5 8 -18
25 -30 34 -24 39 -55 11 -70 -28 -15 -51 -12 -51 5 0 10 -10 15 -31 15 -31 0
-68 31 -69 58 0 7 -14 12 -35 12 -24 0 -35 5 -35 15 0 8 -6 12 -15 9 -11 -5
-13 1 -9 28 4 24 1 38 -10 47 -26 22 -19 50 19 72 28 17 33 24 24 35 -11 13
-5 34 10 34 4 0 13 -11 20 -24z m972 -123 c6 -16 7 -55 3 -97 -6 -60 -9 -67
-17 -46 -5 14 -17 43 -27 65 -9 22 -20 52 -24 67 -6 27 -5 27 47 37 4 0 12
-11 18 -26z m-416 -23 c3 -5 12 -7 20 -4 8 3 20 -4 27 -15 7 -12 22 -21 33
-21 11 0 44 -18 74 -41 30 -22 66 -43 80 -46 37 -6 48 -20 34 -42 -10 -15 -9
-22 2 -31 8 -7 15 -17 15 -22 0 -11 -10 -9 -99 16 -69 20 -66 21 -226 -135
-105 -102 -125 -118 -163 -124 -24 -4 -55 -2 -70 3 -15 5 -53 18 -84 27 -57
17 -83 35 -60 43 7 2 12 10 12 17 0 8 48 63 108 123 59 59 127 130 152 158 83
90 129 120 145 94z m737 -2 c-5 -7 -12 -22 -15 -33 -3 -13 -5 -9 -6 13 -1 23
3 32 15 32 12 0 14 -3 6 -12z m729 -59 c11 -11 19 -25 17 -31 -4 -12 -136 -47
-179 -48 -14 0 -29 -3 -33 -7 -4 -4 -43 -14 -87 -23 l-80 -16 -20 24 c-10 14
-19 28 -19 32 0 8 128 40 163 40 14 0 38 5 53 10 15 6 50 13 78 16 28 3 55 10
61 15 14 13 23 11 46 -12z m-821 1 c0 -5 -5 -10 -11 -10 -5 0 -7 5 -4 10 3 6
8 10 11 10 2 0 4 -4 4 -10z m75 -76 c-6 -47 -19 -74 -30 -63 -2 2 4 36 13 74
17 78 28 72 17 -11z m-85 -28 c0 -11 -19 -15 -25 -6 -3 5 1 10 9 10 9 0 16 -2
16 -4z m-300 -36 c0 -5 -4 -10 -10 -10 -5 0 -10 5 -10 10 0 6 5 10 10 10 6 0
10 -4 10 -10z m-687 -304 c-26 -33 -53 -46 -53 -27 0 10 60 61 73 61 5 0 -4
-15 -20 -34z m-129 -47 c-14 -28 -23 -57 -20 -64 2 -7 0 -17 -6 -23 -7 -7 2
-23 27 -51 21 -23 42 -41 47 -41 5 0 33 -15 61 -34 29 -19 64 -40 80 -47 26
-12 40 -37 15 -26 -7 3 -38 15 -68 28 -30 12 -72 30 -92 40 -21 10 -38 15 -38
11 1 -10 74 -53 171 -100 117 -56 141 -79 39 -36 -47 19 -92 41 -100 48 -16
13 -83 46 -95 46 -17 0 -113 54 -137 78 -44 41 -31 118 27 172 l28 25 -17 -32
c-9 -18 -19 -52 -22 -76 -6 -39 -3 -47 22 -71 16 -14 33 -26 39 -26 5 0 0 7
-11 15 -28 19 -38 79 -19 116 12 22 83 99 93 99 1 0 -9 -23 -24 -51z m1696
-55 c20 -41 50 -125 50 -144 1 -8 21 -55 46 -105 24 -49 43 -80 40 -68 -7 41
11 34 29 -10 25 -61 34 -93 50 -172 7 -38 17 -80 20 -92 4 -14 3 -23 -3 -23
-6 0 -13 15 -17 33 -10 48 -28 101 -38 112 -10 10 -3 -115 9 -167 4 -17 2 -28
-4 -28 -14 0 -20 22 -26 87 -3 29 -12 65 -20 80 -24 44 -83 212 -97 278 -7 33
-25 90 -40 126 -36 89 -46 133 -28 127 8 -2 21 -18 29 -34z m-1630 16 c5 0 11
-15 15 -32 7 -33 60 -98 79 -98 17 0 72 -47 64 -55 -3 -3 -40 8 -82 25 -75 32
-136 83 -136 116 0 28 21 56 37 50 8 -3 18 -6 23 -6z m100 -21 c0 -5 0 -12 -1
-15 0 -3 11 -21 26 -40 21 -27 23 -34 10 -34 -60 0 -129 91 -77 102 21 5 42
-1 42 -13z m1460 -14 c0 -8 -4 -15 -10 -15 -5 0 -7 7 -4 15 4 8 8 15 10 15 2
0 4 -7 4 -15z m-1813 -17 c-3 -8 -6 -5 -6 6 -1 11 2 17 5 13 3 -3 4 -12 1 -19z
m1930 -10 c-3 -8 -6 -5 -6 6 -1 11 2 17 5 13 3 -3 4 -12 1 -19z m-110 -30 c-3
-8 -6 -5 -6 6 -1 11 2 17 5 13 3 -3 4 -12 1 -19z m23 -38 c0 -5 13 -32 30 -60
16 -28 41 -91 55 -140 28 -101 28 -100 16 -100 -14 0 -69 119 -97 207 -26 87
-29 103 -14 103 6 0 10 -4 10 -10z m-24 -73 c9 -28 20 -56 24 -62 9 -11 25
-103 17 -95 -5 5 -77 207 -77 217 0 2 4 2 9 -2 5 -3 17 -29 27 -58z m-455 -75
c30 -20 63 -52 54 -52 -3 0 6 -20 20 -44 14 -24 24 -50 23 -57 -2 -7 7 -18 20
-24 38 -17 23 -40 -31 -43 -43 -3 -48 -1 -57 22 -5 15 -16 26 -24 26 -9 0 -19
8 -24 18 -12 22 -24 172 -14 172 4 0 19 -8 33 -18z m-845 -16 c16 -8 42 -20
58 -26 16 -6 26 -13 24 -16 -8 -8 -58 7 -58 17 0 5 -8 9 -17 9 -19 1 -64 30
-46 30 5 0 23 -6 39 -14z m-36 -573 c-1 -24 -2 -26 -11 -10 -5 9 -7 22 -4 27
10 17 15 11 15 -17z m0 -283 c0 -5 -4 -10 -10 -10 -5 0 -10 5 -10 10 0 6 5 10
10 10 6 0 10 -4 10 -10z"/>
<path d="M4195 4100 c-3 -5 1 -10 10 -10 9 0 13 5 10 10 -3 6 -8 10 -10 10 -2
0 -7 -4 -10 -10z"/>
<path d="M5695 4250 c-8 -12 20 -24 35 -15 6 3 8 11 5 16 -8 12 -32 12 -40 -1z"/>
<path d="M5802 3320 c0 -14 2 -19 5 -12 2 6 2 18 0 25 -3 6 -5 1 -5 -13z"/>
<path d="M3660 6774 c-80 -7 -185 -15 -235 -19 -220 -17 -256 -22 -270 -41 -8
-11 -15 -26 -15 -34 0 -8 -9 -35 -21 -59 l-20 -44 -38 37 c-28 27 -40 34 -44
23 -14 -37 -17 -134 -8 -257 8 -114 8 -139 -5 -157 -8 -13 -22 -23 -30 -23
-13 0 -14 -3 -4 -15 8 -10 17 -12 29 -6 10 6 25 4 41 -5 57 -31 80 -11 55 49
-17 42 -9 76 27 101 29 20 41 20 68 -2 15 -12 22 -30 24 -62 2 -37 6 -44 20
-42 10 2 29 15 41 28 l23 25 103 -31 c130 -38 138 -49 97 -121 -24 -43 -53
-56 -95 -43 -16 5 -76 8 -135 9 -96 0 -109 2 -139 24 l-33 24 24 -39 c13 -21
37 -58 54 -80 17 -23 38 -52 46 -64 8 -13 29 -41 45 -64 51 -69 66 -97 62
-109 -8 -22 14 -48 58 -67 37 -16 44 -24 47 -51 3 -31 6 -34 78 -56 100 -32
336 -65 366 -51 23 11 44 47 44 76 0 10 7 45 16 77 9 34 16 95 15 140 -1 78
-6 110 -38 242 l-15 63 31 46 c17 26 34 62 37 81 12 63 -1 480 -16 498 -15 18
-78 18 -290 -1z m-125 -85 c16 -16 20 -30 17 -80 -2 -47 2 -69 18 -94 25 -40
27 -117 4 -139 -17 -18 -59 -20 -118 -6 -26 6 -53 24 -83 54 -24 25 -50 46
-58 46 -22 0 -48 46 -40 71 7 20 12 21 61 15 l54 -6 0 44 c0 59 16 91 54 110
35 17 62 13 91 -15z m277 -376 c39 -35 9 -103 -46 -103 -28 0 -56 29 -56 58 0
54 62 81 102 45z m-78 -334 c33 -15 41 -57 22 -104 -22 -53 -20 -71 13 -94 38
-27 44 -55 18 -87 -18 -23 -25 -26 -69 -22 -94 10 -133 66 -82 119 27 28 28
31 15 72 -24 81 -25 99 -5 114 22 16 55 17 88 2z m-271 -95 c-3 -8 -11 -14
-18 -14 -19 0 -27 30 -13 47 10 13 14 13 24 -2 7 -9 10 -23 7 -31z"/>
<path d="M2314 6759 c-13 -15 -14 -20 -4 -17 8 2 16 -7 19 -22 10 -43 87 -144
130 -170 22 -14 43 -32 46 -40 3 -8 17 -27 32 -42 145 -141 246 -249 259 -278
9 -19 23 -43 32 -52 8 -10 13 -18 11 -19 -2 0 -21 -1 -41 -3 -20 -2 -44 -9
-53 -16 -17 -14 -20 -47 -5 -70 8 -13 13 -13 39 3 33 19 40 20 59 9 10 -7 9
-17 -3 -52 -14 -41 -14 -45 2 -61 13 -12 28 -15 51 -12 36 6 42 18 12 26 -32
8 -23 31 27 66 l46 33 37 -21 c21 -12 51 -21 66 -21 l29 1 -30 16 c-52 27 -77
55 -70 80 3 15 1 23 -8 23 -7 0 -22 8 -33 18 -10 9 -29 16 -40 14 -16 -2 -23
3 -27 25 -3 16 -21 44 -40 64 -19 19 -37 44 -41 55 -9 26 -37 59 -58 67 -10 3
-18 15 -18 25 0 23 -50 72 -73 72 -10 0 -17 8 -17 19 0 29 -60 91 -87 91 -19
0 -23 5 -23 28 0 31 -32 66 -116 124 -83 58 -89 60 -110 37z"/>
<path d="M6170 6762 l-25 -20 -3 -230 c-1 -128 2 -233 7 -236 5 -3 21 10 36
30 19 25 32 33 46 29 30 -10 105 115 111 185 4 44 14 70 50 126 69 107 69 110
6 117 -176 20 -202 20 -228 -1z"/>
<path d="M5199 6757 c-56 -42 -89 -72 -89 -83 0 -18 48 7 53 28 3 9 19 26 37
36 17 11 28 22 23 25 -4 3 -15 0 -24 -6z"/>
<path d="M6598 6753 c-21 -5 -23 -22 -4 -48 19 -27 48 -13 44 22 -3 28 -12 33
-40 26z"/>
<path d="M5247 6725 c8 -22 33 -51 33 -38 0 4 -9 19 -20 33 -16 20 -19 21 -13
5z"/>
<path d="M5519 6720 c-13 -10 -19 -19 -12 -20 11 0 43 26 43 36 0 8 -8 4 -31
-16z"/>
<path d="M5231 6694 c0 -11 3 -14 6 -6 3 7 2 16 -1 19 -3 4 -6 -2 -5 -13z"/>
<path d="M4531 6548 c2 -82 -1 -122 -9 -130 -18 -18 -138 -23 -159 -7 -15 12
-16 12 -8 -6 4 -11 11 -38 14 -60 3 -22 11 -39 16 -38 36 7 45 13 45 32 0 24
36 37 75 27 14 -4 25 -2 25 3 0 6 8 7 17 4 13 -5 15 -3 8 13 -23 55 -16 80 14
52 12 -11 13 -9 7 7 -4 11 -12 60 -16 109 -14 139 -32 135 -29 -6z"/>
<path d="M5248 6633 c7 -3 16 -2 19 1 4 3 -2 6 -13 5 -11 0 -14 -3 -6 -6z"/>
<path d="M5470 6581 c0 -20 13 -35 23 -25 7 8 -4 44 -14 44 -5 0 -9 -9 -9 -19z"/>
<path d="M4370 6550 c-11 -41 -10 -45 12 -62 52 -40 64 -8 24 63 l-24 42 -12
-43z"/>
<path d="M4647 6575 c-10 -9 -24 -15 -31 -12 -15 6 -26 -20 -26 -60 0 -24 44
-96 53 -87 3 3 1 20 -4 37 -14 49 -11 75 12 96 12 11 19 25 17 32 -3 8 -9 6
-21 -6z"/>
<path d="M5564 6514 c3 -8 6 -18 6 -20 0 -2 5 -4 10 -4 16 0 11 27 -6 34 -12
5 -15 2 -10 -10z"/>
<path d="M5623 6475 c-17 -19 -16 -40 2 -55 20 -16 32 -5 16 14 -7 8 -10 24
-6 36 7 23 5 25 -12 5z"/>
<path d="M4792 6432 c2 -64 -27 -84 -52 -37 -7 14 -17 25 -22 25 -14 0 -9 -37
7 -50 8 -7 15 -18 15 -25 0 -19 25 -36 43 -29 9 3 24 26 33 50 14 37 15 49 4
74 -17 41 -30 38 -28 -8z"/>
<path d="M4370 6441 c0 -6 5 -13 10 -16 14 -9 52 4 45 16 -8 12 -55 12 -55 0z"/>
<path d="M2383 6409 c-4 -15 -11 -19 -28 -15 -35 9 -65 -22 -72 -72 -4 -28 -2
-42 6 -42 6 0 11 -6 11 -14 0 -26 62 -56 103 -49 36 5 85 48 71 62 -3 3 -14
-4 -24 -17 -40 -48 -117 -37 -147 22 -15 29 -15 31 16 58 24 21 41 28 74 28
24 0 49 -6 56 -12 7 -7 3 4 -10 24 -29 46 -49 55 -56 27z"/>
<path d="M4670 6399 c0 -11 4 -18 10 -14 5 3 7 12 3 20 -7 21 -13 19 -13 -6z"/>
<path d="M4650 6340 c0 -5 5 -10 10 -10 6 0 10 5 10 10 0 6 -4 10 -10 10 -5 0
-10 -4 -10 -10z"/>
<path d="M4572 6328 c2 -6 14 -15 26 -19 18 -7 22 -5 22 11 0 15 -7 20 -26 20
-15 0 -24 -5 -22 -12z"/>
<path d="M7374 6302 c-42 -33 -69 -112 -40 -112 8 0 21 -3 30 -6 18 -7 39 55
34 103 -3 31 -3 32 -24 15z"/>
<path d="M3045 6080 c-3 -5 -1 -10 4 -10 6 0 11 5 11 10 0 6 -2 10 -4 10 -3 0
-8 -4 -11 -10z"/>
<path d="M2951 5999 l-35 -29 22 -20 c11 -11 32 -20 46 -20 14 0 28 -4 31 -10
3 -5 33 -10 66 -10 48 0 59 -3 59 -16 0 -16 -32 -16 -123 2 -27 6 -28 5 -15
-15 9 -15 23 -21 50 -21 21 0 38 -4 38 -10 0 -5 -11 -10 -25 -10 -27 0 -35
-24 -11 -33 15 -6 106 81 106 101 0 13 -5 14 -129 36 -46 9 -86 18 -89 21 -14
13 11 15 71 5 37 -7 72 -10 79 -7 15 5 10 7 -59 26 -23 6 -43 18 -45 25 -2 10
-13 6 -37 -15z"/>
<path d="M4395 6007 c-4 -10 -5 -21 -1 -24 10 -10 18 4 13 24 -4 17 -4 17 -12
0z"/>
<path d="M7521 5980 c0 -8 6 -24 14 -34 11 -15 15 -16 15 -5 0 8 -7 24 -15 35
-11 14 -14 15 -14 4z"/>
<path d="M4350 5951 c26 -21 60 -28 60 -12 0 13 -9 17 -50 25 l-35 7 25 -20z"/>
<path d="M2750 5939 c-14 -25 2 -73 23 -67 18 7 21 63 3 77 -12 10 -17 8 -26
-10z"/>
<path d="M2870 5896 c0 -5 9 -24 21 -43 20 -32 20 -35 4 -59 -18 -27 -15 -27
-107 -8 -23 5 -28 2 -34 -20 -15 -63 50 -95 203 -102 84 -3 96 -8 117 -49 9
-17 16 -23 16 -15 0 34 -21 84 -60 141 -23 34 -39 63 -37 66 7 6 94 -105 110
-139 6 -16 15 -28 19 -28 12 0 108 103 124 133 8 15 19 27 24 27 11 0 1 30
-17 48 -11 11 -13 9 -11 -10 2 -17 -3 -24 -19 -26 -17 -3 -23 2 -23 16 0 11 7
22 15 26 8 3 15 10 15 16 0 13 -47 -11 -78 -40 -12 -11 -26 -18 -31 -15 -14 8
-43 -25 -37 -41 11 -28 -13 -13 -49 31 -34 43 -39 45 -73 39 -32 -6 -38 -3
-63 27 -16 19 -29 30 -29 25z m245 -105 c-3 -6 -11 -11 -16 -11 -5 0 -4 6 3
14 14 16 24 13 13 -3z m63 -28 c-4 -22 -22 -20 -26 1 -2 10 3 16 13 16 10 0
15 -7 13 -17z m-53 -56 c0 -26 -20 -25 -23 2 -3 16 1 22 10 19 7 -3 13 -12 13
-21z"/>
<path d="M7212 5875 c0 -16 2 -22 5 -12 2 9 2 23 0 30 -3 6 -5 -1 -5 -18z"/>
<path d="M7336 5728 c-22 -31 -21 -70 1 -66 22 4 42 44 36 69 -7 25 -18 24
-37 -3z"/>
<path d="M3235 5670 c-19 -21 -13 -42 7 -22 20 20 67 14 93 -13 14 -13 25 -29
25 -35 0 -5 5 -10 10 -10 20 0 9 39 -19 69 -35 38 -87 43 -116 11z"/>
<path d="M3133 5563 c-4 -9 1 -29 9 -43 9 -16 13 -39 10 -55 -3 -18 -1 -26 5
-22 14 9 23 98 12 119 -12 23 -28 23 -36 1z"/>
<path d="M7141 5545 c-33 -101 -70 -438 -50 -451 5 -3 9 6 9 19 0 18 7 27 25
31 21 5 24 10 15 26 -13 25 -14 243 0 235 6 -3 10 -19 10 -34 0 -26 4 -28 66
-41 36 -8 67 -17 70 -22 3 -4 16 -8 30 -8 14 0 22 4 19 10 -3 6 -14 10 -24 10
-10 0 -32 7 -47 15 -16 8 -39 15 -50 15 -35 0 -43 20 -52 130 -8 105 -8 105
-21 65z"/>
<path d="M7190 5469 c0 -5 5 -7 10 -4 6 3 10 8 10 11 0 2 -4 4 -10 4 -5 0 -10
-5 -10 -11z"/>
<path d="M3180 5314 c0 -8 8 -23 17 -32 16 -16 16 -16 10 1 -4 10 -7 25 -7 33
0 8 -4 14 -10 14 -5 0 -10 -7 -10 -16z"/>
<path d="M7162 5269 l-2 -46 33 6 c31 5 31 6 5 9 -23 3 -27 9 -31 40 -3 34 -4
34 -5 -9z"/>
<path d="M7225 5265 c4 -38 15 -43 15 -7 0 18 -4 32 -9 32 -5 0 -8 -11 -6 -25z"/>
<path d="M3117 5273 c-15 -14 -5 -40 31 -82 37 -43 39 -44 72 -33 18 7 44 12
57 12 32 0 76 -49 115 -127 41 -83 66 -86 36 -5 -36 97 -74 150 -113 158 -18
3 -43 3 -54 0 -12 -3 -30 -8 -40 -11 -14 -4 -26 6 -50 45 -30 49 -41 57 -54
43z"/>
<path d="M6333 5224 c8 -46 30 -71 71 -80 17 -3 33 -10 36 -14 3 -4 24 -11 47
-15 l41 -6 -8 33 c-16 70 -23 75 -122 102 -74 21 -72 22 -65 -20z"/>
<path d="M7268 5203 c7 -3 16 -2 19 1 4 3 -2 6 -13 5 -11 0 -14 -3 -6 -6z"/>
<path d="M7310 5186 c0 -2 11 -6 25 -8 14 -3 25 -1 25 3 0 5 -11 9 -25 9 -14
0 -25 -2 -25 -4z"/>
<path d="M7170 5158 c0 -17 47 -31 56 -17 3 5 -3 9 -13 9 -11 0 -24 5 -31 12
-9 9 -12 8 -12 -4z"/>
<path d="M7284 5115 c36 -19 42 -19 26 0 -7 8 -22 15 -34 15 -18 0 -17 -2 8
-15z"/>
<path d="M7336 5096 c3 -9 11 -16 16 -16 13 0 5 23 -10 28 -7 2 -10 -2 -6 -12z"/>
<path d="M7223 5086 c-13 -6 -23 -14 -23 -18 0 -14 21 -19 35 -8 11 9 18 5 36
-20 19 -25 25 -28 32 -15 12 23 -1 58 -20 51 -9 -4 -21 0 -27 7 -8 10 -17 11
-33 3z"/>
<path d="M2240 4971 c-8 -4 -51 -16 -95 -25 -44 -10 -91 -21 -105 -26 -14 -5
-62 -16 -107 -26 -58 -12 -80 -21 -73 -29 21 -25 -19 -40 -250 -90 -41 -9
-139 -32 -218 -51 -78 -20 -150 -33 -160 -29 -14 5 -14 7 -2 15 13 9 13 10 0
9 -16 0 -78 -13 -145 -30 -38 -10 -75 -16 -103 -18 -8 -1 -10 -6 -6 -13 6 -10
5 -10 -7 -1 -13 10 -19 10 -35 -2 -10 -8 -27 -15 -36 -15 -10 0 -25 -11 -33
-24 -17 -25 -16 -54 5 -171 5 -27 17 -99 25 -160 9 -60 20 -132 25 -160 5 -27
15 -81 21 -120 17 -104 34 -117 125 -94 43 11 44 12 44 54 0 27 6 47 16 56 22
18 113 39 120 28 3 -5 2 -29 -1 -53 -10 -63 26 -76 52 -19 11 23 10 31 -7 60
-11 19 -20 40 -20 48 0 19 69 85 89 85 9 0 27 7 39 16 12 8 27 12 32 9 7 -4 8
3 4 22 -11 46 -19 50 -24 13 -6 -43 -33 -48 -38 -7 -2 18 -9 27 -21 27 -14 0
-20 11 -25 50 -4 28 -4 55 0 61 4 7 -1 10 -12 7 -10 -2 -21 -13 -24 -25 -5
-20 -8 -19 -50 19 -26 24 -40 43 -33 45 13 5 -40 55 -70 66 -22 8 -13 27 14
27 10 0 19 5 19 10 0 10 -7 12 -45 14 -10 1 -29 17 -42 36 -12 19 -27 41 -33
48 -14 16 -9 15 26 -3 16 -8 41 -15 56 -15 15 0 31 -6 35 -13 11 -18 69 -40
83 -32 7 4 22 3 33 -3 81 -37 117 -59 117 -70 0 -9 10 -11 33 -7 23 4 46 -1
81 -20 27 -14 51 -25 53 -25 2 0 3 9 3 21 0 12 -8 23 -19 26 -13 3 -24 23 -36
61 -9 32 -21 68 -26 81 -7 18 -7 27 3 36 19 16 178 68 186 60 8 -8 21 -185 14
-202 -2 -7 -10 -13 -17 -13 -19 0 -27 -17 -20 -40 5 -16 15 -20 48 -20 55 0
62 -6 82 -67 14 -43 22 -53 39 -53 12 0 27 5 33 11 13 13 63 -37 63 -63 0 -9
5 -20 10 -23 22 -14 10 -35 -20 -35 -20 0 -30 5 -30 15 0 9 -7 30 -16 47 l-16
31 -45 -47 c-34 -36 -43 -54 -41 -74 3 -23 7 -27 33 -25 17 0 24 -1 18 -4 -7
-2 -13 -11 -13 -19 0 -17 -77 -74 -101 -74 -15 0 -17 -6 -12 -35 3 -19 3 -42
-1 -51 -11 -29 -44 9 -38 45 4 30 -17 60 -54 76 -17 7 -15 9 12 17 17 6 44 20
60 33 l28 22 -32 17 c-21 11 -29 21 -25 32 3 9 12 13 22 8 68 -28 70 -28 90
-9 26 22 27 45 4 45 -29 0 -83 38 -83 58 0 14 -7 19 -27 19 -49 -1 -127 27
-168 59 -22 17 -67 40 -100 52 -33 11 -68 23 -77 27 -13 5 -18 2 -18 -9 0 -9
-8 -16 -17 -16 -15 0 -16 -2 -3 -10 8 -5 24 -10 35 -10 20 0 55 -31 55 -49 0
-5 18 -12 40 -16 30 -5 40 -11 40 -25 0 -10 5 -22 10 -25 6 -4 8 -10 5 -15 -3
-4 1 -10 9 -13 17 -7 28 -64 17 -86 -6 -10 -6 -23 0 -34 7 -11 6 -24 -1 -37
-11 -21 2 -32 60 -44 17 -4 33 -20 49 -51 13 -25 28 -45 32 -45 5 0 9 -6 9
-13 0 -7 18 -23 40 -36 40 -22 46 -31 33 -45 -4 -4 -6 -23 -4 -42 2 -22 -2
-34 -10 -34 -10 0 -10 -3 -1 -12 19 -19 14 -55 -9 -72 -16 -11 -20 -21 -15
-40 8 -32 -9 -34 -25 -3 -6 12 -20 30 -30 40 -23 21 -24 46 -4 53 25 10 17 26
-12 22 -26 -3 -28 -6 -26 -45 2 -49 10 -46 -162 -63 -60 -6 -136 -15 -169 -20
-32 -5 -62 -7 -66 -5 -4 3 -11 21 -14 40 -7 34 -8 35 -51 35 -25 0 -45 -4 -45
-10 0 -5 6 -10 14 -10 25 0 39 -26 26 -50 -9 -16 -9 -25 -1 -33 6 -6 11 -18
11 -26 -1 -11 -8 -8 -25 12 -35 39 -56 37 -35 -4 15 -26 -6 -26 -22 1 -7 11
-18 20 -24 20 -7 0 -22 8 -35 19 -20 16 -22 21 -10 35 8 9 12 19 9 21 -3 3
-40 -2 -84 -10 -43 -8 -119 -19 -169 -25 -157 -20 -180 -25 -176 -41 5 -24 77
-296 106 -404 9 -33 25 -96 37 -140 34 -134 17 -125 240 -125 183 0 193 1 215
22 18 17 39 22 102 26 79 4 79 5 71 28 -9 22 -37 137 -62 249 -6 28 -14 62
-19 77 -5 17 -3 30 4 36 13 10 75 23 117 23 14 1 68 5 122 11 176 18 175 20
148 -374 -10 -146 -18 -208 -26 -208 -6 0 -34 -20 -60 -44 -55 -48 -75 -99
-94 -236 -6 -41 -15 -93 -20 -115 -4 -22 -13 -74 -20 -115 -6 -41 -13 -90 -16
-107 l-5 -33 55 0 c48 0 54 2 49 17 -5 12 -2 15 9 10 27 -10 9 32 -23 56 -37
27 -37 51 2 135 27 60 30 74 26 142 -3 47 1 99 11 138 12 53 21 68 57 97 23
19 47 35 52 35 6 0 16 7 23 15 7 8 27 17 46 21 33 6 58 24 33 24 -8 0 -8 4 -1
13 13 16 58 15 74 -1 7 -7 16 -12 20 -12 14 0 9 41 -7 56 -13 14 -17 14 -31 0
-31 -31 -31 -26 0 134 17 90 22 246 8 252 -5 1 -5 35 -1 73 5 39 11 104 14
145 4 41 12 102 19 135 14 61 16 80 16 174 0 30 5 80 11 113 12 61 38 91 113
128 l30 15 -30 3 c-57 6 -59 16 -4 23 30 4 99 15 153 25 69 13 100 15 105 8 4
-6 45 -14 92 -17 47 -4 96 -9 110 -12 46 -11 59 12 49 80 -5 33 -14 98 -19
145 -6 47 -15 114 -20 150 -22 164 -42 319 -47 365 -4 35 -12 55 -27 67 -22
18 -71 23 -96 9z m-1399 -1361 c14 -8 19 -21 19 -50 0 -23 -5 -40 -11 -40 -8
0 -8 -5 1 -15 12 -15 12 -23 -9 -123 -7 -35 -6 -40 5 -31 8 6 14 21 14 33 0
30 18 55 28 39 12 -18 92 -314 96 -353 1 -12 -19 -15 -116 -18 -129 -3 -118
-8 -134 68 -3 19 -13 44 -20 55 -8 11 -14 29 -14 40 0 18 -27 126 -61 243 -5
17 -13 47 -18 65 -5 17 -12 39 -15 48 -6 13 10 18 101 31 59 9 109 16 111 17
2 0 12 -4 23 -9z m664 -36 c0 -26 -4 -29 -45 -36 -25 -4 -82 -12 -126 -16
l-82 -8 -11 31 c-16 46 -15 57 7 45 12 -7 51 -6 127 3 61 8 115 13 120 12 6
-1 10 -15 10 -31z m-372 -86 c54 -226 57 -241 45 -255 -6 -7 -23 -13 -38 -13
-36 0 -43 11 -64 105 -10 44 -22 90 -27 103 -11 27 -12 66 -2 75 3 4 23 7 44
7 30 0 38 -4 42 -22z"/>
<path d="M717 3453 c-9 -8 43 -74 54 -68 12 8 -1 35 -17 35 -8 0 -14 6 -14 14
0 17 -14 28 -23 19z"/>
<path d="M1109 3336 c-3 -3 -3 -21 -1 -40 3 -24 10 -37 24 -42 28 -8 33 1 22
43 -8 34 -31 53 -45 39z"/>
<path d="M7910 4875 c14 -8 36 -14 50 -14 33 0 8 14 -40 22 -35 6 -35 6 -10
-8z"/>
<path d="M8636 4881 c-4 -7 -5 -15 -2 -18 9 -9 19 4 14 18 -4 11 -6 11 -12 0z"/>
<path d="M1768 4853 c6 -2 18 -2 25 0 6 3 1 5 -13 5 -14 0 -19 -2 -12 -5z"/>
<path d="M8003 4853 c9 -2 23 -2 30 0 6 3 -1 5 -18 5 -16 0 -22 -2 -12 -5z"/>
<path d="M1698 4833 c7 -3 16 -2 19 1 4 3 -2 6 -13 5 -11 0 -14 -3 -6 -6z"/>
<path d="M8073 4833 c9 -2 25 -2 35 0 9 3 1 5 -18 5 -19 0 -27 -2 -17 -5z"/>
<path d="M8547 4832 c-2 -4 2 -21 9 -38 10 -25 24 -35 63 -48 27 -9 57 -16 65
-16 9 0 16 -7 16 -16 0 -9 9 -29 21 -45 16 -23 28 -29 58 -29 30 0 44 -7 76
-40 33 -34 37 -42 25 -51 -30 -20 -106 -57 -155 -74 -61 -22 -100 -48 -140
-90 -34 -35 -176 -95 -225 -95 -18 0 -35 -8 -44 -22 -14 -20 -24 -22 -95 -21
l-79 1 -15 -38 c-17 -44 -8 -60 34 -60 38 0 44 -15 20 -49 -18 -25 -27 -51
-18 -51 1 0 20 -7 42 -14 35 -13 42 -12 58 1 9 9 17 21 17 27 0 15 79 66 103
66 10 0 31 13 45 28 15 16 50 36 77 46 28 10 64 24 81 33 20 9 43 12 66 8 22
-4 38 -3 42 4 4 6 18 11 32 11 14 0 44 13 67 28 23 16 62 34 87 41 25 7 55 17
67 22 29 11 37 -3 36 -64 -1 -35 -7 -55 -22 -71 -25 -27 -27 -48 -5 -81 11
-16 14 -34 9 -55 -4 -18 -2 -36 4 -44 9 -11 4 -18 -25 -35 -35 -21 -36 -22
-19 -41 25 -27 29 -26 50 19 11 25 26 42 41 45 20 5 24 13 24 47 0 24 8 52 19
68 13 18 17 32 10 42 -5 7 -9 35 -9 60 0 37 7 57 36 99 19 28 33 57 31 64 -3
7 -1 19 3 26 6 9 0 20 -16 32 -29 23 -31 48 -5 48 29 0 51 11 51 25 0 7 10 16
23 20 21 6 20 7 -12 21 -32 15 -35 14 -62 -12 -33 -31 -53 -24 -45 17 3 16 1
29 -4 29 -6 0 -20 11 -32 25 -17 20 -31 25 -68 25 -34 0 -52 5 -65 20 -10 11
-24 20 -31 20 -7 0 -23 13 -35 29 -13 18 -34 32 -55 35 -19 4 -41 18 -52 33
-17 24 -22 25 -51 15 -26 -9 -39 -8 -76 8 -24 10 -46 16 -48 12z m93 -62 c0
-5 -12 -10 -26 -10 -14 0 -23 4 -19 10 3 6 15 10 26 10 10 0 19 -4 19 -10z
m266 -265 c-11 -8 -27 -15 -35 -15 -13 1 -12 4 3 15 11 8 27 15 35 15 13 -1
12 -4 -3 -15z m-120 -50 c-11 -8 -28 -15 -37 -15 -10 0 -21 -4 -24 -10 -7 -12
-25 -13 -25 -2 0 8 69 40 90 41 11 0 10 -3 -4 -14z m112 -16 c-2 -6 -8 -10
-13 -10 -5 0 -11 4 -13 10 -2 6 4 11 13 11 9 0 15 -5 13 -11z m67 -39 c3 -5 3
-10 -2 -10 -4 0 -19 -3 -33 -6 -24 -5 -24 -5 -6 10 23 19 32 20 41 6z m-235
-27 c0 -5 -5 -15 -10 -23 -9 -13 -11 -13 -20 0 -15 22 -12 30 10 30 11 0 20
-3 20 -7z m120 -27 c0 -5 -88 -46 -100 -46 -23 0 -7 19 28 33 35 15 72 22 72
13z m-290 -62 c0 -8 -4 -12 -10 -9 -5 3 -10 10 -10 16 0 5 5 9 10 9 6 0 10 -7
10 -16z m-270 -104 c5 0 12 5 15 10 3 6 12 10 18 10 7 0 4 -5 -5 -11 -25 -14
-22 -37 5 -42 12 -3 2 -3 -23 -2 -25 2 -46 4 -47 4 -8 2 -1 39 10 50 10 10 13
9 15 -3 2 -9 7 -16 12 -16z"/>
<path d="M8140 4820 c8 -5 24 -10 35 -10 17 0 17 2 5 10 -8 5 -24 10 -35 10
-17 0 -17 -2 -5 -10z"/>
<path d="M1558 4803 c6 -2 18 -2 25 0 6 3 1 5 -13 5 -14 0 -19 -2 -12 -5z"/>
<path d="M8218 4803 c6 -2 18 -2 25 0 6 3 1 5 -13 5 -14 0 -19 -2 -12 -5z"/>
<path d="M8378 4803 c7 -3 16 -2 19 1 4 3 -2 6 -13 5 -11 0 -14 -3 -6 -6z"/>
<path d="M1488 4783 c6 -2 18 -2 25 0 6 3 1 5 -13 5 -14 0 -19 -2 -12 -5z"/>
<path d="M8293 4783 c9 -2 23 -2 30 0 6 3 -1 5 -18 5 -16 0 -22 -2 -12 -5z"/>
<path d="M8443 4783 c9 -2 25 -2 35 0 9 3 1 5 -18 5 -19 0 -27 -2 -17 -5z"/>
<path d="M8510 4770 c0 -5 9 -10 20 -10 11 0 20 5 20 10 0 6 -9 10 -20 10 -11
0 -20 -4 -20 -10z"/>
<path d="M1418 4763 c6 -2 18 -2 25 0 6 3 1 5 -13 5 -14 0 -19 -2 -12 -5z"/>
<path d="M8373 4763 c9 -2 23 -2 30 0 6 3 -1 5 -18 5 -16 0 -22 -2 -12 -5z"/>
<path d="M1350 4751 c0 -5 9 -7 20 -4 11 3 20 7 20 9 0 2 -9 4 -20 4 -11 0
-20 -4 -20 -9z"/>
<path d="M8438 4753 c6 -2 18 -2 25 0 6 3 1 5 -13 5 -14 0 -19 -2 -12 -5z"/>
<path d="M1283 4733 c9 -2 23 -2 30 0 6 3 -1 5 -18 5 -16 0 -22 -2 -12 -5z"/>
<path d="M8508 4733 c7 -3 16 -2 19 1 4 3 -2 6 -13 5 -11 0 -14 -3 -6 -6z"/>
<path d="M8588 4713 c7 -3 16 -2 19 1 4 3 -2 6 -13 5 -11 0 -14 -3 -6 -6z"/>
<path d="M9196 4522 c-3 -5 -21 -116 -41 -248 -19 -131 -38 -250 -41 -263 -4
-21 -3 -23 9 -13 8 7 17 38 20 70 3 31 13 102 22 157 46 289 49 305 42 305 -3
0 -8 -4 -11 -8z"/>
<path d="M1195 4473 c-20 -15 -19 -15 5 -9 14 3 28 6 33 6 4 0 7 5 7 10 0 15
-22 12 -45 -7z"/>
<path d="M7095 4200 c-3 -5 -1 -10 4 -10 6 0 11 5 11 10 0 6 -2 10 -4 10 -3 0
-8 -4 -11 -10z"/>
<path d="M8093 4124 c-20 -21 -15 -51 9 -57 27 -7 34 -2 20 15 -5 7 -12 23
-14 34 -2 18 -5 20 -15 8z"/>
<path d="M3145 4120 c-4 -6 -1 -10 5 -10 6 0 4 -10 -5 -24 -14 -21 -27 -25
-103 -32 -94 -8 -114 -7 -123 8 -4 5 -20 1 -41 -10 -19 -11 -49 -23 -66 -27
-44 -9 -134 11 -179 42 -37 25 -113 57 -113 47 0 -2 6 -15 14 -27 7 -12 16
-46 19 -76 6 -52 6 -53 -13 -36 -11 10 -22 25 -25 34 -3 9 -18 24 -33 33 -37
22 -178 68 -206 68 -27 -1 -129 -45 -134 -58 -1 -5 15 -12 38 -16 22 -3 40
-10 40 -15 0 -11 -25 -21 -51 -21 -21 0 -26 -16 -6 -24 8 -3 7 -8 -5 -16 -10
-6 -18 -18 -18 -25 0 -8 -7 -15 -16 -15 -9 0 -12 5 -8 13 4 6 -2 4 -13 -5 -24
-22 -37 -23 -29 -3 3 8 1 15 -4 15 -6 0 -10 -7 -10 -15 0 -8 -4 -15 -10 -15
-5 0 -10 -9 -10 -20 0 -21 -15 -27 -25 -10 -11 18 -25 10 -25 -14 0 -13 -6
-29 -14 -36 -12 -9 -14 -36 -9 -144 6 -137 6 -138 -40 -234 -10 -20 -13 -110
-5 -117 2 -2 13 -6 26 -9 17 -6 22 -3 22 12 0 11 6 25 14 31 7 6 16 38 19 71
3 33 14 75 25 93 11 19 25 50 31 69 l12 36 96 -2 c67 -1 98 -5 101 -14 2 -7 8
-10 12 -7 5 3 27 -2 49 -11 31 -12 41 -22 41 -39 0 -39 -10 -57 -25 -45 -17
14 -72 -8 -99 -39 -12 -13 -31 -21 -52 -21 -52 0 -81 -19 -104 -68 -26 -55
-21 -75 17 -66 16 4 30 11 31 16 2 4 41 8 86 8 60 0 88 -4 106 -17 16 -11 45
-17 89 -17 51 -1 73 -6 97 -23 l31 -22 9 41 c7 32 17 46 40 60 28 16 41 17
115 9 46 -6 113 -15 149 -21 36 -7 76 -13 90 -15 14 -2 27 -4 30 -5 3 -1 9 -2
14 -1 6 1 21 -1 35 -4 55 -15 -17 -24 -198 -26 -145 -1 -181 -4 -185 -16 -3
-7 -22 -21 -42 -29 -34 -14 -35 -16 -29 -54 8 -46 6 -46 -75 -29 -49 10 -54 9
-117 -23 l-65 -33 36 -16 c35 -15 35 -16 18 -32 -10 -10 -25 -17 -32 -17 -31
0 -134 -47 -168 -76 -27 -23 -41 -48 -58 -100 -21 -68 -22 -69 -65 -80 -59
-14 -76 -23 -83 -41 -5 -13 1 -15 39 -11 25 3 48 2 51 -3 8 -14 -29 -87 -47
-92 -17 -5 -27 -38 -21 -75 2 -15 9 -22 17 -18 8 3 17 1 20 -4 4 -6 -2 -10
-12 -10 -10 0 -29 -9 -43 -20 -14 -11 -31 -20 -37 -20 -7 0 -13 -4 -13 -10 0
-6 30 -10 71 -10 53 0 68 -3 62 -12 -4 -7 -10 -33 -14 -58 -4 -25 -15 -79 -23
-120 -9 -41 -16 -78 -16 -82 0 -5 104 -8 230 -8 230 0 231 0 240 23 l9 22 0
-22 1 -23 308 0 307 0 -3 123 c-3 92 0 137 12 177 9 29 16 66 16 82 0 15 9 42
20 60 11 18 20 49 20 68 1 42 34 249 48 304 8 28 32 61 86 115 l75 76 -14 105
c-28 208 -25 200 -77 200 -16 0 -28 5 -28 10 0 6 -9 10 -20 10 -11 0 -20 5
-20 11 0 6 7 9 15 6 22 -9 30 14 10 30 -13 9 -22 10 -29 3 -14 -14 -27 -13
-25 3 1 6 -1 20 -5 29 -5 10 -2 26 7 39 14 19 14 24 -1 47 -12 19 -13 27 -4
30 21 7 13 22 -13 22 -14 0 -25 4 -25 8 0 4 -14 13 -31 19 -17 7 -28 17 -24
22 3 6 -1 11 -10 11 -9 0 -19 9 -22 20 -3 11 -12 20 -19 20 -8 0 -14 5 -14 11
0 8 -5 8 -15 -1 -12 -10 -15 -10 -15 4 0 9 -7 16 -15 16 -20 0 -65 22 -65 32
0 16 45 7 88 -17 23 -13 42 -20 42 -15 0 17 -30 38 -74 51 -26 7 -46 16 -46
20 0 9 90 33 113 30 25 -3 97 31 97 46 0 7 4 13 10 13 16 0 49 41 43 55 -6 18
-31 27 -38 15z m-312 -154 c9 -7 17 -18 17 -24 0 -6 5 -12 11 -14 38 -13 -95
-88 -157 -88 -11 0 -34 -6 -50 -14 -16 -8 -43 -17 -60 -19 -17 -3 -41 -10 -52
-16 -11 -6 -45 -11 -74 -11 -46 1 -51 2 -35 14 21 16 23 40 2 32 -8 -3 -15 -4
-15 -2 0 3 -3 11 -6 20 -4 11 5 18 35 26 23 6 46 8 51 5 5 -3 25 -3 45 1 27 5
35 11 35 28 0 12 -5 27 -12 34 -9 9 -9 12 -1 12 7 0 15 -4 18 -10 3 -5 39 -10
79 -10 58 0 79 4 99 20 l26 20 6 -20 c3 -11 13 -20 21 -20 19 0 18 19 -1 26
-15 6 -21 24 -7 24 4 0 15 -7 25 -14z m-515 -103 c-10 -2 -26 -2 -35 0 -10 3
-2 5 17 5 19 0 27 -2 18 -5z m573 -243 c10 -6 19 -16 19 -22 0 -14 -31 -37
-49 -38 -18 0 -51 29 -51 46 0 21 51 30 81 14z m-162 -89 c13 -23 5 -31 -31
-31 -32 0 -35 6 -11 32 20 23 30 23 42 -1z m241 -491 c15 -29 7 -47 -52 -110
-37 -40 -48 -48 -43 -31 4 13 8 47 8 75 0 31 6 58 15 69 20 23 59 22 72 -3z
m-325 -310 c3 -5 1 -10 -4 -10 -6 0 -11 5 -11 10 0 6 2 10 4 10 3 0 8 -4 11
-10z m-75 -10 c0 -5 4 -9 9 -7 5 1 9 -1 10 -5 1 -5 -1 -7 -3 -5 -2 1 -13 -7
-25 -17 -26 -24 -38 -14 -23 19 11 25 32 34 32 15z m220 -71 c14 -33 4 -49
-31 -49 -28 0 -106 -58 -120 -89 -8 -17 -17 -31 -21 -31 -5 0 -8 -7 -8 -15 0
-8 -4 -15 -10 -15 -16 0 -12 21 8 43 16 19 16 20 0 14 -12 -4 -18 -1 -18 8 0
8 6 15 13 15 7 0 17 24 24 61 15 81 24 89 93 89 55 0 58 -1 70 -31z m-207
-247 c-3 -12 -9 -22 -14 -22 -12 0 -11 7 3 30 15 24 19 21 11 -8z m-32 -49
c-19 -35 -39 -58 -46 -51 -10 10 24 68 41 68 11 0 12 -4 5 -17z"/>
<path d="M9030 3971 c0 -5 5 -13 10 -16 6 -3 10 -2 10 4 0 5 -4 13 -10 16 -5
3 -10 2 -10 -4z"/>
<path d="M7827 3940 c6 -21 21 -35 29 -27 6 6 -18 47 -27 47 -4 0 -5 -9 -2
-20z"/>
<path d="M1045 3887 c-60 -19 -72 -25 -212 -93 -78 -38 -140 -70 -138 -72 1
-2 58 1 125 6 117 10 124 11 145 38 l22 28 8 -24 8 -24 13 26 c10 19 19 24 36
21 13 -2 64 3 113 11 72 13 92 13 100 3 15 -18 57 -9 53 11 -3 14 -19 17 -96
20 -93 3 -93 3 -70 21 12 10 30 20 38 24 8 3 -11 5 -42 5 -31 0 -60 2 -65 4
-4 3 -21 0 -38 -5z"/>
<path d="M8915 3872 c-5 -4 -17 -16 -25 -27 -13 -17 -11 -16 18 4 17 12 32 24
32 27 0 6 -14 5 -25 -4z"/>
<path d="M7111 3803 c0 -12 -4 -30 -7 -40 -5 -14 -4 -15 5 -7 7 6 11 24 8 40
-3 21 -4 23 -6 7z"/>
<path d="M7026 3788 c-3 -13 -6 -51 -6 -85 0 -47 4 -63 14 -63 16 0 26 43 26
116 0 39 -4 54 -14 54 -7 0 -16 -10 -20 -22z"/>
<path d="M7895 3769 c-9 -14 -7 -15 36 -22 53 -8 71 9 23 22 -48 13 -51 14
-59 0z"/>
<path d="M8336 3764 c-8 -22 4 -40 15 -23 11 18 11 39 0 39 -5 0 -12 -7 -15
-16z"/>
<path d="M9170 3760 c0 -5 10 -10 23 -10 18 0 19 2 7 10 -19 13 -30 13 -30 0z"/>
<path d="M3273 3746 c-7 -8 -8 -18 -2 -27 8 -12 10 -12 19 1 21 32 7 53 -17
26z"/>
<path d="M8010 3750 c0 -5 4 -10 9 -10 6 0 13 5 16 10 3 6 -1 10 -9 10 -9 0
-16 -4 -16 -10z"/>
<path d="M8060 3750 c0 -5 5 -10 10 -10 6 0 10 5 10 10 0 6 -4 10 -10 10 -5 0
-10 -4 -10 -10z"/>
<path d="M8110 3741 c0 -11 100 -42 112 -35 20 13 5 32 -29 38 -54 8 -83 7
-83 -3z"/>
<path d="M7105 3724 c-7 -17 -32 -313 -51 -596 -4 -54 -11 -98 -16 -98 -4 0
-6 30 -4 68 4 64 -11 121 -30 114 -4 -1 -9 3 -10 10 -1 7 -7 26 -13 41 -10 27
-14 28 -51 22 -48 -8 -48 -5 -19 76 19 53 25 59 50 59 15 0 31 5 34 10 4 7 12
7 24 0 16 -8 20 -5 25 22 10 49 7 58 -19 68 -21 8 -25 16 -25 50 0 25 -5 40
-12 40 -29 0 -125 -43 -151 -68 -31 -29 -54 -97 -39 -115 5 -7 17 -46 26 -87
10 -41 27 -111 38 -155 18 -69 47 -215 48 -237 0 -5 -30 -8 -67 -8 -80 0 -153
-25 -182 -61 -47 -60 -67 -135 -91 -334 -15 -127 -21 -146 -59 -166 -52 -27
-81 -59 -107 -114 l-24 -50 133 -7 c137 -8 223 -3 233 13 7 13 68 11 81 -2 7
-7 164 -10 498 -9 407 0 492 3 516 15 15 8 33 15 39 15 6 0 18 6 26 14 7 8 18
16 24 18 6 2 2 19 -9 42 -11 21 -22 43 -24 49 -1 5 -13 11 -25 12 -12 1 -32
11 -44 22 -13 12 -32 23 -42 25 -24 4 -34 28 -12 28 30 0 16 19 -24 31 l-39
12 22 17 c12 10 31 20 42 23 15 3 13 5 -8 6 -21 1 -28 5 -25 18 5 28 35 27 63
-1 14 -14 33 -26 42 -26 13 0 14 3 5 12 -7 7 -12 19 -12 28 -1 21 -56 84 -68
76 -9 -5 -48 30 -46 43 0 3 -13 27 -29 53 -25 40 -33 46 -48 38 -24 -13 -29
-34 -30 -119 -1 -55 3 -77 16 -91 23 -26 12 -41 -19 -27 -34 16 -37 32 -42
177 -2 69 -9 138 -15 155 -15 44 -115 117 -150 110 -15 -3 -54 1 -87 9 -76 20
-82 20 -54 -2 18 -14 22 -24 17 -44 -4 -14 -16 -28 -27 -31 -25 -7 -88 3 -88
14 0 16 25 64 37 72 18 11 16 27 -2 27 -13 0 -15 32 -14 227 0 133 -4 229 -9
232 -6 3 -13 38 -17 76 -9 84 -48 188 -60 159z m298 -891 c-13 -2 -35 -2 -50
0 -16 2 -5 4 22 4 28 0 40 -2 28 -4z"/>
<path d="M8370 3721 c0 -10 30 -24 37 -17 3 2 -5 9 -16 16 -12 6 -21 7 -21 1z"/>
<path d="M7400 3696 c0 -17 -83 -76 -108 -76 -27 0 -30 -18 -38 -202 -6 -147
-2 -204 14 -194 4 2 8 -18 9 -45 3 -87 16 -95 173 -103 81 -5 155 -26 179 -52
48 -49 89 -125 100 -184 12 -59 14 -63 52 -78 31 -12 48 -29 76 -75 32 -53 36
-67 34 -117 -2 -42 3 -66 18 -91 28 -49 45 -115 46 -183 1 -43 5 -62 18 -71
13 -9 110 -13 403 -14 l386 -1 -6 27 c-2 16 -8 73 -11 128 -8 143 -23 193 -67
238 -20 20 -41 37 -47 37 -7 0 -11 34 -11 98 0 53 -5 124 -10 157 -10 60 -3
355 9 353 3 -1 14 2 24 6 52 23 94 -32 62 -81 -14 -20 -23 -24 -51 -21 l-34 4
0 -43 0 -43 75 -1 c41 -1 80 -2 87 -3 7 -1 18 25 25 59 8 33 18 74 22 90 5 17
12 47 15 67 l7 37 -28 -14 c-53 -28 -92 27 -57 79 20 31 48 33 71 6 21 -24 33
-26 33 -5 0 9 6 18 14 21 8 3 12 12 9 20 -6 17 -64 19 -81 2 -8 -8 -15 -8 -25
0 -7 6 -45 16 -83 22 -57 8 -71 7 -80 -5 -14 -19 -24 -19 -24 -1 0 8 -12 42
-26 75 -26 60 -56 84 -83 67 -6 -4 -38 2 -72 14 -34 11 -98 23 -143 26 l-81 7
20 -24 c11 -13 31 -35 43 -49 20 -20 22 -31 16 -60 -4 -19 -7 -70 -7 -113 1
-73 -1 -78 -20 -75 -19 3 -44 35 -67 86 -12 28 -33 37 -58 23 -16 -8 -25 -6
-45 9 -16 12 -32 17 -43 13 -13 -5 -16 -3 -11 9 9 25 -44 64 -194 144 l-40 22
33 5 c22 3 42 -1 58 -13 14 -9 38 -20 53 -24 30 -7 30 -10 12 52 -4 13 -2 22
4 22 6 0 11 -4 11 -10 0 -5 5 -10 10 -10 6 0 10 7 10 15 0 15 -8 18 -60 18
-146 0 -151 -1 -148 -29 3 -23 -5 -31 -52 -57 -75 -41 -105 -48 -127 -32 -10
7 -19 18 -19 24 -1 6 -2 12 -3 14 -2 1 -4 12 -7 24 -2 15 2 24 16 28 22 7 25
22 10 45 -8 13 -15 12 -53 -9 -46 -25 -49 -25 -104 9 -24 14 -33 16 -33 6z
m1153 -200 c29 -46 33 -71 17 -96 -9 -13 -14 -11 -34 12 -20 22 -23 35 -19 66
3 24 1 42 -6 46 -15 10 -14 27 2 21 6 -3 24 -25 40 -49z m-705 -11 c0 -28 -13
-33 -22 -9 -9 24 -7 34 8 34 8 0 14 -10 14 -25z m105 -15 c3 -11 1 -20 -4 -20
-5 0 -9 4 -9 9 0 5 -10 13 -22 17 -22 7 -22 7 -3 14 25 9 31 6 38 -20z m691
-86 c8 -29 -18 -79 -34 -69 -6 4 -10 26 -10 51 0 36 3 44 19 44 12 0 21 -9 25
-26z m-494 0 c0 -2 -12 -4 -27 -4 -21 0 -24 3 -14 9 13 8 41 5 41 -5z m-70
-14 c13 -8 13 -10 -2 -10 -9 0 -20 5 -23 10 -8 13 5 13 25 0z m-150 -25 c11
-13 10 -14 -4 -9 -9 3 -16 10 -16 15 0 13 6 11 20 -6z m170 -35 c0 -5 -7 -10
-15 -10 -8 0 -15 5 -15 10 0 6 7 10 15 10 8 0 15 -4 15 -10z m-136 -62 c-3 -5
-15 0 -26 11 -10 12 -16 26 -12 33 5 8 13 4 26 -11 10 -13 15 -27 12 -33z
m653 20 c-3 -7 -5 -2 -5 12 0 14 2 19 5 13 2 -7 2 -19 0 -25z m-447 -78 c13
-8 13 -10 0 -14 -19 -7 -40 -3 -65 12 -18 10 -17 11 15 12 19 0 42 -4 50 -10z
m20 -69 c0 -15 -16 -22 -34 -15 -25 9 -19 24 9 24 14 0 25 -4 25 -9z m380
-151 c0 -5 -4 -10 -10 -10 -5 0 -10 5 -10 10 0 6 5 10 10 10 6 0 10 -4 10 -10z
m-562 -329 c9 -5 1 -10 -25 -14 -60 -10 -73 -9 -67 8 7 16 69 21 92 6z m410
-300 c9 -5 -3 -10 -35 -14 -26 -3 -57 -9 -68 -13 -18 -7 -18 -6 -7 9 8 9 30
18 50 20 20 2 39 4 42 5 3 1 11 -2 18 -7z m-408 -5 c0 -3 -4 -8 -10 -11 -5 -3
-10 -1 -10 4 0 6 5 11 10 11 6 0 10 -2 10 -4z m263 -23 c-7 -2 -21 -2 -30 0
-10 3 -4 5 12 5 17 0 24 -2 18 -5z"/>
<path d="M3240 3689 c0 -4 4 -10 9 -13 11 -7 74 5 66 13 -9 8 -75 9 -75 0z"/>
<path d="M6386 3641 c13 -12 117 -41 124 -35 3 3 -6 14 -19 25 -23 19 -126 29
-105 10z"/>
<path d="M8614 3616 c-8 -11 -14 -37 -14 -57 0 -45 3 -46 163 -55 85 -5 117
-4 117 4 0 7 -19 12 -47 13 -27 0 -84 6 -128 12 -63 10 -80 16 -83 30 -7 37 4
45 50 37 24 -4 82 -11 131 -14 71 -6 87 -4 87 7 0 10 -28 17 -102 26 -164 19
-158 20 -174 -3z"/>
<path d="M9400 3601 c0 -6 12 -11 28 -11 15 0 37 -7 49 -15 22 -16 45 -3 27
15 -15 14 -104 24 -104 11z"/>
<path d="M2230 3593 c-8 -2 -21 -6 -28 -9 -11 -3 -11 -6 0 -18 15 -16 42 -6
52 19 6 16 2 17 -24 8z"/>
<path d="M3276 3575 c4 -8 8 -15 10 -15 2 0 4 7 4 15 0 8 -4 15 -10 15 -5 0
-7 -7 -4 -15z"/>
<path d="M7940 3553 c0 -14 98 -42 173 -49 20 -2 37 1 37 6 0 6 -1 10 -2 10
-13 2 -159 31 -180 36 -16 4 -28 2 -28 -3z"/>
<path d="M9470 3536 c0 -8 5 -18 10 -21 6 -3 10 1 10 9 0 8 -4 18 -10 21 -5 3
-10 -1 -10 -9z"/>
<path d="M9250 3484 c-9 -31 -10 -48 -3 -52 6 -4 14 -26 18 -49 11 -69 30 -66
20 3 -10 75 -11 105 -1 127 6 12 4 17 -7 17 -9 0 -19 -18 -27 -46z"/>
<path d="M9373 3425 c-13 -12 -23 -31 -23 -41 1 -15 7 -12 30 16 44 51 38 71
-7 25z"/>
<path d="M9451 3413 c-12 -14 -24 -38 -27 -52 -3 -14 -10 -36 -15 -49 -13 -33
-11 -59 5 -65 10 -4 17 8 24 41 5 26 17 71 25 100 8 28 13 52 11 52 -1 0 -12
-12 -23 -27z"/>
<path d="M6992 3345 c-17 -38 -15 -63 8 -75 15 -8 21 -6 30 9 15 30 12 78 -6
85 -21 8 -19 9 -32 -19z"/>
<path d="M8985 3328 c-12 -34 -9 -62 7 -66 19 -4 35 37 24 63 -7 18 -25 20
-31 3z"/>
<path d="M9177 3164 c-4 -4 -7 -18 -7 -31 0 -22 2 -23 89 -23 81 0 90 -2 104
-22 12 -18 16 -20 20 -8 2 8 9 30 15 48 l10 32 -98 0 c-54 0 -105 2 -112 5 -8
3 -17 2 -21 -1z"/>
<path d="M7245 3060 c-3 -5 1 -10 9 -10 9 0 16 5 16 10 0 6 -4 10 -9 10 -6 0
-13 -4 -16 -10z"/>
<path d="M7652 2910 c14 -22 24 -19 15 5 -4 8 -11 15 -17 15 -6 0 -6 -7 2 -20z"/>
<path d="M6520 2910 c0 -5 12 -10 28 -9 24 0 25 1 7 9 -27 12 -35 12 -35 0z"/>
<path d="M1736 2840 c-26 -32 -34 -60 -16 -60 11 0 54 79 47 86 -3 3 -16 -9
-31 -26z"/>
<path d="M1753 2760 c-12 -10 -29 -17 -39 -14 -11 2 -32 -7 -49 -23 -28 -25
-30 -30 -28 -92 3 -74 -12 -188 -32 -241 -7 -19 -16 -68 -20 -108 l-7 -73 98
2 c64 2 104 7 112 16 7 7 20 16 28 21 16 9 22 82 9 121 -5 15 -2 21 9 21 9 0
16 5 16 11 0 6 -8 8 -18 5 -24 -8 -53 50 -47 96 12 94 12 143 1 182 -8 25 -10
51 -5 64 11 29 -4 35 -28 12z"/>
<path d="M3760 2740 c-21 -13 -10 -18 27 -13 18 3 30 9 27 14 -7 12 -35 11
-54 -1z"/>
<path d="M5010 2550 c-11 -7 5 -10 52 -10 37 0 70 5 73 10 8 13 -105 13 -125
0z"/>
<path d="M5238 2553 c12 -2 30 -2 40 0 9 3 -1 5 -23 4 -22 0 -30 -2 -17 -4z"/>
<path d="M4825 2504 c-16 -2 -50 -7 -74 -10 -61 -8 -34 -22 45 -23 72 -1 212
-16 294 -31 93 -18 220 -24 233 -11 8 8 6 11 -9 12 -30 2 -53 6 -144 24 -138
27 -297 45 -345 39z"/>
<path d="M3930 2418 c66 -24 273 -38 284 -19 5 8 -11 11 -56 11 -35 0 -95 7
-133 15 -39 8 -88 14 -110 14 l-40 0 55 -21z"/>
<path d="M3477 2367 c-11 -29 -9 -43 4 -30 6 6 9 19 7 29 -3 18 -4 18 -11 1z"/>
</g>
</svg>
