<svg width="40" height="36" viewBox="0 0 40 36" fill="none" xmlns="http://www.w3.org/2000/svg">
<g filter="url(#filter0_dii_587_197)">
<path d="M25.1937 11H14.6995C14.6475 11.0007 14.5964 11.0132 14.5499 11.0364C14.5035 11.0596 14.4628 11.0931 14.4311 11.1342L11.0949 15.5377C11.0445 15.5976 11.0168 15.6734 11.0168 15.7518C11.0168 15.8301 11.0445 15.906 11.0949 15.9659L19.6846 25.0604C19.7157 25.0937 19.7533 25.1203 19.795 25.1384C19.8368 25.1565 19.8819 25.1659 19.9274 25.1659C19.973 25.1659 20.018 25.1565 20.0598 25.1384C20.1016 25.1203 20.1392 25.0937 20.1703 25.0604L28.7599 15.9659C28.8104 15.906 28.8381 15.8301 28.8381 15.7518C28.8381 15.6734 28.8104 15.5976 28.7599 15.5377L25.4621 11.1342C25.4304 11.0931 25.3897 11.0596 25.3433 11.0364C25.2968 11.0132 25.2457 11.0007 25.1937 11Z" fill="#9D51FF"/>
<path d="M19.6872 25.0617C19.7869 25.1678 19.9 25.1742 19.9441 25.1639L19.9549 25.1019V14.896H11.5807C11.4529 15.066 11.1768 15.4309 11.0988 15.5325C11.0016 15.6604 10.9365 15.7997 11.0988 15.9723L19.6872 25.0617Z" fill="#7A1CD7"/>
<path d="M19.9441 11H14.6995C14.6476 11.0007 14.5965 11.0132 14.55 11.0364C14.5035 11.0596 14.4629 11.0931 14.4311 11.1342L11.3397 15.2149C11.2106 15.3805 11.0803 15.67 11.6599 15.67C13.8137 15.6713 15.5943 15.6757 16.8406 15.6757C17.5091 14.6749 18.5815 13.0701 19.9441 11Z" fill="#AC43FF"/>
<path d="M19.9466 25.1621L16.8405 15.6841H23.0527L19.9466 25.1621Z" fill="#FDAEFF"/>
<path d="M25.0895 11H19.9568V15.6642H28.8296C28.817 15.6184 28.7952 15.5756 28.7657 15.5383C28.7056 15.4527 25.581 11.2934 25.5062 11.1885C25.4315 11.0837 25.2966 11 25.0895 11Z" fill="#A57AFF"/>
<path d="M19.9466 11L21.4997 13.3455L23.0527 15.6847H16.8405L18.3936 13.3455L19.9466 11Z" fill="#FEDBFF"/>
</g>
<defs>
<filter id="filter0_dii_587_197" x="0.5" y="0.5" width="38.8381" height="35.1675" filterUnits="userSpaceOnUse" color-interpolation-filters="sRGB">
<feFlood flood-opacity="0" result="BackgroundImageFix"/>
<feColorMatrix in="SourceAlpha" type="matrix" values="0 0 0 0 0 0 0 0 0 0 0 0 0 0 0 0 0 0 127 0" result="hardAlpha"/>
<feOffset/>
<feGaussianBlur stdDeviation="5.25"/>
<feComposite in2="hardAlpha" operator="out"/>
<feColorMatrix type="matrix" values="0 0 0 0 0.72549 0 0 0 0 0.372549 0 0 0 0 1 0 0 0 0.35 0"/>
<feBlend mode="plus-lighter" in2="BackgroundImageFix" result="effect1_dropShadow_587_197"/>
<feBlend mode="normal" in="SourceGraphic" in2="effect1_dropShadow_587_197" result="shape"/>
<feColorMatrix in="SourceAlpha" type="matrix" values="0 0 0 0 0 0 0 0 0 0 0 0 0 0 0 0 0 0 127 0" result="hardAlpha"/>
<feOffset/>
<feGaussianBlur stdDeviation="1.25"/>
<feComposite in2="hardAlpha" operator="arithmetic" k2="-1" k3="1"/>
<feColorMatrix type="matrix" values="0 0 0 0 1 0 0 0 0 1 0 0 0 0 1 0 0 0 0.7 0"/>
<feBlend mode="overlay" in2="shape" result="effect2_innerShadow_587_197"/>
<feColorMatrix in="SourceAlpha" type="matrix" values="0 0 0 0 0 0 0 0 0 0 0 0 0 0 0 0 0 0 127 0" result="hardAlpha"/>
<feOffset dy="-3"/>
<feGaussianBlur stdDeviation="2"/>
<feComposite in2="hardAlpha" operator="arithmetic" k2="-1" k3="1"/>
<feColorMatrix type="matrix" values="0 0 0 0 1 0 0 0 0 1 0 0 0 0 1 0 0 0 0.15 0"/>
<feBlend mode="plus-lighter" in2="effect2_innerShadow_587_197" result="effect3_innerShadow_587_197"/>
</filter>
</defs>
</svg>
